# xmcd
#
# Track frame offsets:
#	150
#	5062
#	15775
#	27790
#	38570
#	48535
#	59167
#	70417
#	81460
#	92757
#	102055
#	111592
#	120985
#	135090
#	148255
#	157175
#	167890
#	179990
#	190397
#	202322
#	212155
#	225200
#	237787
#
# Disc length: 3233 seconds
#
# Revision: 0
# Processed by: cddbd v1.5.2PL0 Copyright (c) Steve Scherf et al.
# Submitted via: EasyCDDAExtractor 15.3.0.1
#
DISCID=4c0c9f17
DTITLE=Britt Elton - Ridin' With Elton
DYEAR=1900
DGENRE=Country
TTITLE0=Pinto Pal (Opening) (Transcription)
TTITLE1=I Love To Be A Soldier (Transcription)
TTITLE2=Goodbye May God Take Care Of You (Transcription)
TTITLE3=Chime Bells (Transcription)
TTITLE4=Little Silver Bells (Transcription)
TTITLE5=Talk To The Boss In The Sky (Transcription)
TTITLE6=Why Didn't You Take That Too (Transcription)
TTITLE7=I Can't Tell That Lie To My Heart (Transcription)
TTITLE8=They Took The Stars Out Of Heaven (Transcription)
TTITLE9=Some Time Sue (Transcription)
TTITLE10=I'll Be Crying Over You (Transcription)
TTITLE11=Wartime Lullaby (Transcription)
TTITLE12=Little Pal (Transcription)
TTITLE13=These Memories Of You (Transcription)
TTITLE14=Mamaracho (Scarecrow) (Transcription)
TTITLE15=Ain't You A Little Bit Sorry (Transcription)
TTITLE16=Put Me In Your Pocket (Transcription)
TTITLE17=Remember And Be True Dear (Transcription)
TTITLE18=Trip To The Moon (Transcription)
TTITLE19=We'll Be Back (Transcription)
TTITLE20=Hello Dear Mother And Dad (Transcription)
TTITLE21=There's A Star Spangled Banner Waving Somewhere (Transcription)
TTITLE22=Pinto Pal (Closing) (Transcription)
EXTD=
EXTT0=
EXTT1=
EXTT2=
EXTT3=
EXTT4=
EXTT5=
EXTT6=
EXTT7=
EXTT8=
EXTT9=
EXTT10=
EXTT11=
EXTT12=
EXTT13=
EXTT14=
EXTT15=
EXTT16=
EXTT17=
EXTT18=
EXTT19=
EXTT20=
EXTT21=
EXTT22=
PLAYORDER=
